<mxfile host="app.diagrams.net" modified="2021-10-11T21:19:51.266Z" agent="5.0 (Windows NT 10.0; Win64; x64) AppleWebKit/537.36 (KHTML, like Gecko) Chrome/94.0.4606.71 Safari/537.36" etag="liTQPx5cmenM9GnWlSKQ" version="15.5.1" type="github">
  <diagram id="yRNca1dHeisvLHWqgOVA" name="Page-1">
    <mxGraphModel dx="10649" dy="4913" grid="1" gridSize="10" guides="1" tooltips="1" connect="1" arrows="1" fold="1" page="1" pageScale="1" pageWidth="1169" pageHeight="827" math="0" shadow="0">
      <root>
        <mxCell id="0" />
        <mxCell id="1" parent="0" />
        <mxCell id="m_13FwPqQZ2k1hZdJkOd-58" value="" style="rounded=0;whiteSpace=wrap;html=1;fontSize=18;" vertex="1" parent="1">
          <mxGeometry x="-50" y="10" width="1250" height="3450" as="geometry" />
        </mxCell>
        <mxCell id="m_13FwPqQZ2k1hZdJkOd-5" style="edgeStyle=orthogonalEdgeStyle;rounded=0;orthogonalLoop=1;jettySize=auto;html=1;exitX=0.5;exitY=1;exitDx=0;exitDy=0;entryX=0.5;entryY=0;entryDx=0;entryDy=0;" edge="1" parent="1" source="m_13FwPqQZ2k1hZdJkOd-1" target="m_13FwPqQZ2k1hZdJkOd-3">
          <mxGeometry relative="1" as="geometry" />
        </mxCell>
        <mxCell id="m_13FwPqQZ2k1hZdJkOd-1" value="IT Resources Required" style="shape=hexagon;perimeter=hexagonPerimeter2;whiteSpace=wrap;html=1;fixedSize=1;fillColor=#f8cecc;strokeColor=#b85450;" vertex="1" parent="1">
          <mxGeometry x="475" y="200" width="220" height="80" as="geometry" />
        </mxCell>
        <mxCell id="m_13FwPqQZ2k1hZdJkOd-9" style="edgeStyle=orthogonalEdgeStyle;rounded=0;orthogonalLoop=1;jettySize=auto;html=1;exitX=0.5;exitY=1;exitDx=0;exitDy=0;entryX=0.5;entryY=0;entryDx=0;entryDy=0;" edge="1" parent="1" source="m_13FwPqQZ2k1hZdJkOd-3" target="m_13FwPqQZ2k1hZdJkOd-7">
          <mxGeometry relative="1" as="geometry" />
        </mxCell>
        <mxCell id="m_13FwPqQZ2k1hZdJkOd-3" value="Send IT Requirement to IT Company" style="rounded=1;whiteSpace=wrap;html=1;fillColor=#d5e8d4;strokeColor=#82b366;" vertex="1" parent="1">
          <mxGeometry x="475" y="390" width="220" height="80" as="geometry" />
        </mxCell>
        <mxCell id="m_13FwPqQZ2k1hZdJkOd-29" style="edgeStyle=orthogonalEdgeStyle;rounded=0;orthogonalLoop=1;jettySize=auto;html=1;exitX=0;exitY=0.5;exitDx=0;exitDy=0;entryX=0.5;entryY=0;entryDx=0;entryDy=0;fontSize=18;" edge="1" parent="1" source="m_13FwPqQZ2k1hZdJkOd-4" target="m_13FwPqQZ2k1hZdJkOd-16">
          <mxGeometry relative="1" as="geometry" />
        </mxCell>
        <mxCell id="m_13FwPqQZ2k1hZdJkOd-30" style="edgeStyle=orthogonalEdgeStyle;rounded=0;orthogonalLoop=1;jettySize=auto;html=1;exitX=0.5;exitY=1;exitDx=0;exitDy=0;entryX=0.5;entryY=0;entryDx=0;entryDy=0;fontSize=18;" edge="1" parent="1" source="m_13FwPqQZ2k1hZdJkOd-4" target="m_13FwPqQZ2k1hZdJkOd-20">
          <mxGeometry relative="1" as="geometry" />
        </mxCell>
        <mxCell id="m_13FwPqQZ2k1hZdJkOd-31" style="edgeStyle=orthogonalEdgeStyle;rounded=0;orthogonalLoop=1;jettySize=auto;html=1;exitX=1;exitY=0.5;exitDx=0;exitDy=0;entryX=0.5;entryY=0;entryDx=0;entryDy=0;fontSize=18;" edge="1" parent="1" source="m_13FwPqQZ2k1hZdJkOd-4" target="m_13FwPqQZ2k1hZdJkOd-24">
          <mxGeometry relative="1" as="geometry" />
        </mxCell>
        <mxCell id="m_13FwPqQZ2k1hZdJkOd-4" value="&lt;font style=&quot;font-size: 18px&quot;&gt;V&lt;/font&gt;" style="ellipse;whiteSpace=wrap;html=1;aspect=fixed;" vertex="1" parent="1">
          <mxGeometry x="545" y="1527" width="80" height="80" as="geometry" />
        </mxCell>
        <mxCell id="m_13FwPqQZ2k1hZdJkOd-53" style="edgeStyle=orthogonalEdgeStyle;rounded=0;orthogonalLoop=1;jettySize=auto;html=1;exitX=0.5;exitY=1;exitDx=0;exitDy=0;entryX=0.5;entryY=0;entryDx=0;entryDy=0;fontSize=18;" edge="1" parent="1" source="m_13FwPqQZ2k1hZdJkOd-7" target="m_13FwPqQZ2k1hZdJkOd-52">
          <mxGeometry relative="1" as="geometry" />
        </mxCell>
        <mxCell id="m_13FwPqQZ2k1hZdJkOd-7" value="Requirements Sent" style="shape=hexagon;perimeter=hexagonPerimeter2;whiteSpace=wrap;html=1;fixedSize=1;fillColor=#f8cecc;strokeColor=#b85450;" vertex="1" parent="1">
          <mxGeometry x="475" y="580" width="220" height="80" as="geometry" />
        </mxCell>
        <mxCell id="m_13FwPqQZ2k1hZdJkOd-11" style="edgeStyle=orthogonalEdgeStyle;rounded=0;orthogonalLoop=1;jettySize=auto;html=1;exitX=0.5;exitY=1;exitDx=0;exitDy=0;entryX=0.5;entryY=0;entryDx=0;entryDy=0;" edge="1" source="m_13FwPqQZ2k1hZdJkOd-12" target="m_13FwPqQZ2k1hZdJkOd-13" parent="1">
          <mxGeometry relative="1" as="geometry" />
        </mxCell>
        <mxCell id="m_13FwPqQZ2k1hZdJkOd-12" value="Quote Received" style="shape=hexagon;perimeter=hexagonPerimeter2;whiteSpace=wrap;html=1;fixedSize=1;fillColor=#f8cecc;strokeColor=#b85450;" vertex="1" parent="1">
          <mxGeometry x="475" y="1147" width="220" height="80" as="geometry" />
        </mxCell>
        <mxCell id="m_13FwPqQZ2k1hZdJkOd-14" style="edgeStyle=orthogonalEdgeStyle;rounded=0;orthogonalLoop=1;jettySize=auto;html=1;exitX=0.5;exitY=1;exitDx=0;exitDy=0;entryX=0.5;entryY=0;entryDx=0;entryDy=0;fontSize=18;" edge="1" parent="1" source="m_13FwPqQZ2k1hZdJkOd-13" target="m_13FwPqQZ2k1hZdJkOd-4">
          <mxGeometry relative="1" as="geometry" />
        </mxCell>
        <mxCell id="m_13FwPqQZ2k1hZdJkOd-13" value="Make a decision" style="rounded=1;whiteSpace=wrap;html=1;fillColor=#d5e8d4;strokeColor=#82b366;" vertex="1" parent="1">
          <mxGeometry x="475" y="1337" width="220" height="80" as="geometry" />
        </mxCell>
        <mxCell id="m_13FwPqQZ2k1hZdJkOd-15" style="edgeStyle=orthogonalEdgeStyle;rounded=0;orthogonalLoop=1;jettySize=auto;html=1;exitX=0.5;exitY=1;exitDx=0;exitDy=0;entryX=0.5;entryY=0;entryDx=0;entryDy=0;" edge="1" source="m_13FwPqQZ2k1hZdJkOd-16" target="m_13FwPqQZ2k1hZdJkOd-18" parent="1">
          <mxGeometry relative="1" as="geometry" />
        </mxCell>
        <mxCell id="m_13FwPqQZ2k1hZdJkOd-16" value="Negotiate on quote" style="shape=hexagon;perimeter=hexagonPerimeter2;whiteSpace=wrap;html=1;fixedSize=1;fillColor=#f8cecc;strokeColor=#b85450;" vertex="1" parent="1">
          <mxGeometry x="103" y="1717" width="220" height="80" as="geometry" />
        </mxCell>
        <mxCell id="m_13FwPqQZ2k1hZdJkOd-17" style="edgeStyle=orthogonalEdgeStyle;rounded=0;orthogonalLoop=1;jettySize=auto;html=1;exitX=0.5;exitY=1;exitDx=0;exitDy=0;entryX=0.5;entryY=0;entryDx=0;entryDy=0;fontSize=18;" edge="1" source="m_13FwPqQZ2k1hZdJkOd-18" parent="1">
          <mxGeometry relative="1" as="geometry">
            <mxPoint x="213" y="2097" as="targetPoint" />
          </mxGeometry>
        </mxCell>
        <mxCell id="m_13FwPqQZ2k1hZdJkOd-18" value="Send a counter offer" style="rounded=1;whiteSpace=wrap;html=1;fillColor=#d5e8d4;strokeColor=#82b366;" vertex="1" parent="1">
          <mxGeometry x="103" y="1907" width="220" height="80" as="geometry" />
        </mxCell>
        <mxCell id="m_13FwPqQZ2k1hZdJkOd-19" style="edgeStyle=orthogonalEdgeStyle;rounded=0;orthogonalLoop=1;jettySize=auto;html=1;exitX=0.5;exitY=1;exitDx=0;exitDy=0;entryX=0.5;entryY=0;entryDx=0;entryDy=0;" edge="1" source="m_13FwPqQZ2k1hZdJkOd-20" target="m_13FwPqQZ2k1hZdJkOd-22" parent="1">
          <mxGeometry relative="1" as="geometry" />
        </mxCell>
        <mxCell id="m_13FwPqQZ2k1hZdJkOd-20" value="Deny Quote" style="shape=hexagon;perimeter=hexagonPerimeter2;whiteSpace=wrap;html=1;fixedSize=1;fillColor=#f8cecc;strokeColor=#b85450;" vertex="1" parent="1">
          <mxGeometry x="475" y="1717" width="220" height="80" as="geometry" />
        </mxCell>
        <mxCell id="m_13FwPqQZ2k1hZdJkOd-21" style="edgeStyle=orthogonalEdgeStyle;rounded=0;orthogonalLoop=1;jettySize=auto;html=1;exitX=0.5;exitY=1;exitDx=0;exitDy=0;entryX=0.5;entryY=0;entryDx=0;entryDy=0;fontSize=18;" edge="1" source="m_13FwPqQZ2k1hZdJkOd-22" parent="1">
          <mxGeometry relative="1" as="geometry">
            <mxPoint x="585" y="2097" as="targetPoint" />
          </mxGeometry>
        </mxCell>
        <mxCell id="m_13FwPqQZ2k1hZdJkOd-22" value="Send a decline letter" style="rounded=1;whiteSpace=wrap;html=1;fillColor=#d5e8d4;strokeColor=#82b366;" vertex="1" parent="1">
          <mxGeometry x="475" y="1907" width="220" height="80" as="geometry" />
        </mxCell>
        <mxCell id="m_13FwPqQZ2k1hZdJkOd-23" style="edgeStyle=orthogonalEdgeStyle;rounded=0;orthogonalLoop=1;jettySize=auto;html=1;exitX=0.5;exitY=1;exitDx=0;exitDy=0;entryX=0.5;entryY=0;entryDx=0;entryDy=0;" edge="1" source="m_13FwPqQZ2k1hZdJkOd-24" target="m_13FwPqQZ2k1hZdJkOd-26" parent="1">
          <mxGeometry relative="1" as="geometry" />
        </mxCell>
        <mxCell id="m_13FwPqQZ2k1hZdJkOd-24" value="Accept Quote" style="shape=hexagon;perimeter=hexagonPerimeter2;whiteSpace=wrap;html=1;fixedSize=1;fillColor=#f8cecc;strokeColor=#b85450;" vertex="1" parent="1">
          <mxGeometry x="870" y="1717" width="220" height="80" as="geometry" />
        </mxCell>
        <mxCell id="m_13FwPqQZ2k1hZdJkOd-25" style="edgeStyle=orthogonalEdgeStyle;rounded=0;orthogonalLoop=1;jettySize=auto;html=1;exitX=0.5;exitY=1;exitDx=0;exitDy=0;entryX=0.5;entryY=0;entryDx=0;entryDy=0;fontSize=18;" edge="1" source="m_13FwPqQZ2k1hZdJkOd-26" parent="1">
          <mxGeometry relative="1" as="geometry">
            <mxPoint x="980" y="2097" as="targetPoint" />
          </mxGeometry>
        </mxCell>
        <mxCell id="m_13FwPqQZ2k1hZdJkOd-26" value="Send an acceptance letter" style="rounded=1;whiteSpace=wrap;html=1;fillColor=#d5e8d4;strokeColor=#82b366;" vertex="1" parent="1">
          <mxGeometry x="870" y="1907" width="220" height="80" as="geometry" />
        </mxCell>
        <mxCell id="m_13FwPqQZ2k1hZdJkOd-56" style="edgeStyle=orthogonalEdgeStyle;rounded=0;orthogonalLoop=1;jettySize=auto;html=1;exitX=0;exitY=0.5;exitDx=0;exitDy=0;entryX=0;entryY=0.5;entryDx=0;entryDy=0;fontSize=18;" edge="1" parent="1" source="m_13FwPqQZ2k1hZdJkOd-27" target="m_13FwPqQZ2k1hZdJkOd-52">
          <mxGeometry relative="1" as="geometry">
            <Array as="points">
              <mxPoint x="20" y="2137" />
              <mxPoint x="20" y="810" />
            </Array>
          </mxGeometry>
        </mxCell>
        <mxCell id="m_13FwPqQZ2k1hZdJkOd-27" value="Counter offer sent" style="shape=hexagon;perimeter=hexagonPerimeter2;whiteSpace=wrap;html=1;fixedSize=1;fillColor=#f8cecc;strokeColor=#b85450;" vertex="1" parent="1">
          <mxGeometry x="103" y="2097" width="220" height="80" as="geometry" />
        </mxCell>
        <mxCell id="m_13FwPqQZ2k1hZdJkOd-32" value="Decline letter sent" style="shape=hexagon;perimeter=hexagonPerimeter2;whiteSpace=wrap;html=1;fixedSize=1;fillColor=#f8cecc;strokeColor=#b85450;" vertex="1" parent="1">
          <mxGeometry x="475" y="2097" width="220" height="80" as="geometry" />
        </mxCell>
        <mxCell id="m_13FwPqQZ2k1hZdJkOd-33" style="edgeStyle=orthogonalEdgeStyle;rounded=0;orthogonalLoop=1;jettySize=auto;html=1;exitX=0.5;exitY=1;exitDx=0;exitDy=0;entryX=0.5;entryY=0;entryDx=0;entryDy=0;" edge="1" source="m_13FwPqQZ2k1hZdJkOd-34" target="m_13FwPqQZ2k1hZdJkOd-35" parent="1">
          <mxGeometry relative="1" as="geometry" />
        </mxCell>
        <mxCell id="m_13FwPqQZ2k1hZdJkOd-34" value="Acceptance letter sent" style="shape=hexagon;perimeter=hexagonPerimeter2;whiteSpace=wrap;html=1;fixedSize=1;fillColor=#f8cecc;strokeColor=#b85450;" vertex="1" parent="1">
          <mxGeometry x="870" y="2097" width="220" height="80" as="geometry" />
        </mxCell>
        <mxCell id="m_13FwPqQZ2k1hZdJkOd-39" style="edgeStyle=orthogonalEdgeStyle;rounded=0;orthogonalLoop=1;jettySize=auto;html=1;exitX=0.5;exitY=1;exitDx=0;exitDy=0;fontSize=18;" edge="1" parent="1" source="m_13FwPqQZ2k1hZdJkOd-35">
          <mxGeometry relative="1" as="geometry">
            <mxPoint x="980.4285714285716" y="2367.2857142857147" as="targetPoint" />
          </mxGeometry>
        </mxCell>
        <mxCell id="m_13FwPqQZ2k1hZdJkOd-40" style="edgeStyle=orthogonalEdgeStyle;rounded=0;orthogonalLoop=1;jettySize=auto;html=1;exitX=0.5;exitY=1;exitDx=0;exitDy=0;entryX=0.5;entryY=0;entryDx=0;entryDy=0;fontSize=18;" edge="1" parent="1" source="m_13FwPqQZ2k1hZdJkOd-35" target="m_13FwPqQZ2k1hZdJkOd-37">
          <mxGeometry relative="1" as="geometry" />
        </mxCell>
        <mxCell id="m_13FwPqQZ2k1hZdJkOd-35" value="Get an invoice from the IT Company" style="rounded=1;whiteSpace=wrap;html=1;fillColor=#d5e8d4;strokeColor=#82b366;" vertex="1" parent="1">
          <mxGeometry x="870" y="2287" width="220" height="80" as="geometry" />
        </mxCell>
        <mxCell id="m_13FwPqQZ2k1hZdJkOd-36" style="edgeStyle=orthogonalEdgeStyle;rounded=0;orthogonalLoop=1;jettySize=auto;html=1;exitX=0.5;exitY=1;exitDx=0;exitDy=0;entryX=0.5;entryY=0;entryDx=0;entryDy=0;" edge="1" source="m_13FwPqQZ2k1hZdJkOd-37" target="m_13FwPqQZ2k1hZdJkOd-38" parent="1">
          <mxGeometry relative="1" as="geometry" />
        </mxCell>
        <mxCell id="m_13FwPqQZ2k1hZdJkOd-37" value="Invoice Received" style="shape=hexagon;perimeter=hexagonPerimeter2;whiteSpace=wrap;html=1;fixedSize=1;fillColor=#f8cecc;strokeColor=#b85450;" vertex="1" parent="1">
          <mxGeometry x="870" y="2477" width="220" height="80" as="geometry" />
        </mxCell>
        <mxCell id="m_13FwPqQZ2k1hZdJkOd-44" style="edgeStyle=orthogonalEdgeStyle;rounded=0;orthogonalLoop=1;jettySize=auto;html=1;exitX=0.5;exitY=1;exitDx=0;exitDy=0;entryX=0.5;entryY=0;entryDx=0;entryDy=0;fontSize=18;" edge="1" parent="1" source="m_13FwPqQZ2k1hZdJkOd-38" target="m_13FwPqQZ2k1hZdJkOd-42">
          <mxGeometry relative="1" as="geometry" />
        </mxCell>
        <mxCell id="m_13FwPqQZ2k1hZdJkOd-38" value="Send the payment" style="rounded=1;whiteSpace=wrap;html=1;fillColor=#d5e8d4;strokeColor=#82b366;" vertex="1" parent="1">
          <mxGeometry x="870" y="2667" width="220" height="80" as="geometry" />
        </mxCell>
        <mxCell id="m_13FwPqQZ2k1hZdJkOd-41" style="edgeStyle=orthogonalEdgeStyle;rounded=0;orthogonalLoop=1;jettySize=auto;html=1;exitX=0.5;exitY=1;exitDx=0;exitDy=0;entryX=0.5;entryY=0;entryDx=0;entryDy=0;" edge="1" source="m_13FwPqQZ2k1hZdJkOd-42" target="m_13FwPqQZ2k1hZdJkOd-43" parent="1">
          <mxGeometry relative="1" as="geometry" />
        </mxCell>
        <mxCell id="m_13FwPqQZ2k1hZdJkOd-42" value="Payment Sent" style="shape=hexagon;perimeter=hexagonPerimeter2;whiteSpace=wrap;html=1;fixedSize=1;fillColor=#f8cecc;strokeColor=#b85450;" vertex="1" parent="1">
          <mxGeometry x="870" y="2857" width="220" height="80" as="geometry" />
        </mxCell>
        <mxCell id="m_13FwPqQZ2k1hZdJkOd-46" style="edgeStyle=orthogonalEdgeStyle;rounded=0;orthogonalLoop=1;jettySize=auto;html=1;exitX=0.5;exitY=1;exitDx=0;exitDy=0;entryX=0.5;entryY=0;entryDx=0;entryDy=0;fontSize=18;" edge="1" parent="1" source="m_13FwPqQZ2k1hZdJkOd-43" target="m_13FwPqQZ2k1hZdJkOd-45">
          <mxGeometry relative="1" as="geometry" />
        </mxCell>
        <mxCell id="m_13FwPqQZ2k1hZdJkOd-43" value="Get IT Resources setup" style="rounded=1;whiteSpace=wrap;html=1;fillColor=#d5e8d4;strokeColor=#82b366;" vertex="1" parent="1">
          <mxGeometry x="870" y="3047" width="220" height="80" as="geometry" />
        </mxCell>
        <mxCell id="m_13FwPqQZ2k1hZdJkOd-45" value="IT Resources Installed&amp;nbsp;" style="shape=hexagon;perimeter=hexagonPerimeter2;whiteSpace=wrap;html=1;fixedSize=1;fillColor=#f8cecc;strokeColor=#b85450;" vertex="1" parent="1">
          <mxGeometry x="870" y="3237" width="220" height="80" as="geometry" />
        </mxCell>
        <mxCell id="m_13FwPqQZ2k1hZdJkOd-55" style="edgeStyle=orthogonalEdgeStyle;rounded=0;orthogonalLoop=1;jettySize=auto;html=1;exitX=0.5;exitY=1;exitDx=0;exitDy=0;entryX=0.5;entryY=0;entryDx=0;entryDy=0;fontSize=18;" edge="1" parent="1" source="m_13FwPqQZ2k1hZdJkOd-51" target="m_13FwPqQZ2k1hZdJkOd-12">
          <mxGeometry relative="1" as="geometry" />
        </mxCell>
        <mxCell id="m_13FwPqQZ2k1hZdJkOd-51" value="Wait for a quote from IT Company" style="rounded=1;whiteSpace=wrap;html=1;fillColor=#d5e8d4;strokeColor=#82b366;" vertex="1" parent="1">
          <mxGeometry x="475" y="960" width="220" height="80" as="geometry" />
        </mxCell>
        <mxCell id="m_13FwPqQZ2k1hZdJkOd-54" style="edgeStyle=orthogonalEdgeStyle;rounded=0;orthogonalLoop=1;jettySize=auto;html=1;exitX=0.5;exitY=1;exitDx=0;exitDy=0;entryX=0.5;entryY=0;entryDx=0;entryDy=0;fontSize=18;" edge="1" parent="1" source="m_13FwPqQZ2k1hZdJkOd-52" target="m_13FwPqQZ2k1hZdJkOd-51">
          <mxGeometry relative="1" as="geometry" />
        </mxCell>
        <mxCell id="m_13FwPqQZ2k1hZdJkOd-52" value="&lt;font style=&quot;font-size: 18px&quot;&gt;V&lt;/font&gt;" style="ellipse;whiteSpace=wrap;html=1;aspect=fixed;" vertex="1" parent="1">
          <mxGeometry x="545" y="770" width="80" height="80" as="geometry" />
        </mxCell>
        <mxCell id="m_13FwPqQZ2k1hZdJkOd-57" value="SU Interactive and IT Service Provider" style="text;html=1;align=center;verticalAlign=middle;resizable=0;points=[];autosize=1;strokeColor=none;fillColor=none;fontSize=18;" vertex="1" parent="1">
          <mxGeometry x="420" y="75" width="320" height="30" as="geometry" />
        </mxCell>
      </root>
    </mxGraphModel>
  </diagram>
</mxfile>
